<svg xmlns="http://www.w3.org/2000/svg" width="91" height="15" viewBox="0 0 91 15" fill="none"><path d="M7.4334 0C9.99922 0 12.2614 1.29158 13.5973 3.25602L14.1549 4.27671H11.6089L11.1391 3.71226C10.1907 2.77227 8.88054 2.19087 7.4334 2.19087C4.5391 2.19087 2.1928 4.51642 2.1928 7.38513C2.1928 10.2538 4.5391 12.5794 7.4334 12.5794C9.60414 12.5794 11.4666 11.2713 12.2622 9.40696L12.5522 8.48093H4.4416V6.37882H14.7898L14.8284 6.63006C14.8538 6.87831 14.8668 7.13022 14.8668 7.38513C14.8668 11.4638 11.5388 14.7703 7.4334 14.7703C3.32804 14.7703 0 11.4638 0 7.38513C0 3.30641 3.32804 0 7.4334 0Z" fill="white"></path><path d="M21.0694 3.20314L19.2247 7.30999H22.9142L21.0694 3.20314ZM20.1646 0.144775H21.9742L28.4787 14.6254H26.2001L23.8577 9.4105H18.2812L15.9387 14.6254H13.6602L16.9437 7.31535V7.30999H16.9461L20.1646 0.144775Z" fill="white"></path><path d="M31.6628 2.24529V7.30999H36.4953C36.7975 7.28045 37.0072 7.23252 37.2909 7.11088C38.2032 6.72647 38.8434 5.82655 38.8434 4.77766C38.8434 3.72878 38.2032 2.82881 37.2909 2.4444C36.9888 2.31668 36.7605 2.22574 36.3846 2.2269L31.6628 2.24529ZM29.541 0.144775H36.8277V0.197678L37.2381 0.238899C39.3559 0.670905 40.9492 2.53881 40.9492 4.77766C40.9492 6.45674 40.053 7.92725 38.7114 8.73981L38.4101 8.88891H38.442L41.8013 14.6254H38.998L35.9442 9.4105H31.6628V14.6254H29.5572V9.4105H29.541V7.30999H29.5572V2.24529H29.541V0.144775Z" fill="white"></path><path d="M59.8543 0.144775H57.7305V14.6254H59.8543V0.144775Z" fill="white"></path><path d="M43.0078 0.17779H43.8864H44.7767L45.1161 0.604613L53.015 10.5384V14.0495L45.1161 4.11578V14.6254H43.0078V1.46436V0.17779ZM53.015 0.144775H55.1233V13.1897V14.6254H53.473L53.015 14.0495L53.015 10.5383V0.144775Z" fill="white"></path><path d="M80.6082 2.24529V7.30999H85.4409C85.7426 7.28045 85.9526 7.23252 86.2364 7.11088C87.1487 6.72647 87.7887 5.82655 87.7887 4.77766C87.7887 3.72878 87.1487 2.82881 86.2364 2.4444C85.9342 2.31668 85.7059 2.22574 85.3299 2.2269L80.6082 2.24529ZM78.4863 0.144775H85.773V0.197678L86.1833 0.238899C88.3013 0.670905 89.8947 2.53881 89.8947 4.77766C89.8947 6.45674 88.9983 7.92725 87.6569 8.73981L87.3552 8.88891H87.3876L90.7466 14.6254H87.9432L84.8897 9.4105H80.6082V14.6254H78.5027V9.4105H78.4863V7.30999H78.5027V2.24529H78.4863V0.144775Z" fill="white"></path><path d="M69.1209 14.7703C71.6867 14.7703 73.9489 13.4787 75.2848 11.5142L75.8424 10.4936H73.2964L72.8266 11.058C71.8782 11.998 70.568 12.5794 69.1209 12.5794C66.2266 12.5794 63.8803 10.2538 63.8803 7.38513C63.8803 4.51642 66.2266 2.19087 69.1209 2.19087C71.2916 2.19087 73.1541 3.49901 73.9497 5.36329L74.2397 6.28933H66.1291V8.39144H76.4773L76.5159 8.1402C76.5413 7.89195 76.5543 7.64004 76.5543 7.38513C76.5543 3.30641 73.2263 0 69.1209 0C65.0155 0 61.6875 3.30641 61.6875 7.38513C61.6875 11.4638 65.0155 14.7703 69.1209 14.7703Z" fill="white"></path></svg>